<svg xmlns="http://www.w3.org/2000/svg" xmlns:xlink="http://www.w3.org/1999/xlink" width="169.653" height="19.367" viewBox="0 0 169.653 19.367">
  <defs>
    <clipPath id="clip-path">
      <path id="Path_9" data-name="Path 9" d="M0,4.168H169.653V-15.2H0Z" transform="translate(0 15.199)"/>
    </clipPath>
  </defs>
  <g id="Table_Pop_logo" data-name="Table Pop logo" transform="translate(0 15.199)">
    <g id="Group_9" data-name="Group 9" transform="translate(0 -15.199)" clip-path="url(#clip-path)">
      <g id="Group_1" data-name="Group 1" transform="translate(0 0.374)">
        <path id="Path_1" data-name="Path 1" d="M0,0H20.594V9.456l-.4.027a12.84,12.84,0,0,0-2.012-6.095,6.017,6.017,0,0,0-5.1-2.9h-.917V14.725q0,3.389,3.18,3.388h2.653v.52H2.653v-.52H5.28q3.194,0,3.193-3.388V.493H7.342a5.859,5.859,0,0,0-5.1,3.121A12,12,0,0,0,.767,7.269,21.537,21.537,0,0,0,.44,9.456H0Z"/>
      </g>
      <g id="Group_2" data-name="Group 2" transform="translate(20.67 0)">
        <path id="Path_2" data-name="Path 2" d="M2.248,0h.465L9.779,16.3a5.224,5.224,0,0,0,.761,1.255,2.532,2.532,0,0,0,.949.712,3.2,3.2,0,0,0,1.245.222H13.2v.519H3v-.519H4.336A2.828,2.828,0,0,0,5.788,18.2a.972.972,0,0,0,.459-.887,2.9,2.9,0,0,0-.182-.906q-.183-.533-.8-1.934c-.025-.054-.062-.143-.113-.268s-.1-.245-.163-.359l-.289-.68H-2.743l-.566,1.386a3.881,3.881,0,0,0-.277,1.427,2.564,2.564,0,0,0,.32,1.214,2.263,2.263,0,0,0,.837.907,2.282,2.282,0,0,0,.609.285,3.948,3.948,0,0,0,.773.1v.519H-8.2v-.519a4.52,4.52,0,0,0,1.239-.294,4.524,4.524,0,0,0,1.024-.666,10.79,10.79,0,0,0,2.6-4.122ZM.916,4.363l-3.444,8.309H4.449Z" transform="translate(8.199)"/>
      </g>
      <g id="Group_3" data-name="Group 3" transform="translate(43.451 0.374)">
        <path id="Path_3" data-name="Path 3" d="M0,0H12.875a13.157,13.157,0,0,1,2.891.313,6.709,6.709,0,0,1,2.188.833,4.658,4.658,0,0,1,1.521,1.487,3.51,3.51,0,0,1,.54,1.874,3.4,3.4,0,0,1-1.7,2.814,7.356,7.356,0,0,1-1.458.8q-.782.321-2.2.735v.052a15,15,0,0,1,2.979.868q3.194,1.493,3.193,4.108A3.646,3.646,0,0,1,19.87,16.4a6.14,6.14,0,0,1-2.746,1.654,13.7,13.7,0,0,1-4.213.58H0v-.52H.515a3.164,3.164,0,0,0,2.408-.835,3.611,3.611,0,0,0,.786-2.554V3.881a3.658,3.658,0,0,0-.786-2.574A3.146,3.146,0,0,0,.515.466H0ZM7.419.466V8.629h3.809q4.69,0,4.689-4.335a3.79,3.79,0,0,0-1-2.887,4.376,4.376,0,0,0-3.086-.94Zm0,8.684v9.016h3.948A5.606,5.606,0,0,0,15.2,16.986a4.245,4.245,0,0,0,1.333-3.354,4.01,4.01,0,0,0-1.082-2.949,4.3,4.3,0,0,0-2-1.2A13.57,13.57,0,0,0,10,9.15Z"/>
      </g>
      <g id="Group_4" data-name="Group 4" transform="translate(65.955 0.374)">
        <path id="Path_4" data-name="Path 4" d="M.005,0H11.987V.493H10.718a3.155,3.155,0,0,0-2.4.828,3.622,3.622,0,0,0-.78,2.56V18.14h4.552a5.334,5.334,0,0,0,2.54-.635A6.408,6.408,0,0,0,16.7,15.739a14.629,14.629,0,0,0,.93-1.4,10.914,10.914,0,0,0,.767-1.682q.365-.986.717-2.267h.465v8.243H.005L-.02,18.14H.634q3.194,0,3.195-3.415V3.881Q3.828.492.634.493H.005Z" transform="translate(0.02)"/>
      </g>
      <g id="Group_5" data-name="Group 5" transform="translate(87.241 0.374)">
        <path id="Path_5" data-name="Path 5" d="M0,0H18.683V7.216h-.377a22.583,22.583,0,0,0-.924-2.834A8.274,8.274,0,0,0,16.319,2.6,4.78,4.78,0,0,0,14.6,1.174a9.309,9.309,0,0,0-3.759-.68H7.38V9.35h.93A3.749,3.749,0,0,0,11.6,7.457a7.117,7.117,0,0,0,.93-2.322,12.769,12.769,0,0,0,.277-1.693h.44V15.659h-.44q-.151-.986-.358-1.862a7.434,7.434,0,0,0-.465-1.419,6.655,6.655,0,0,0-.66-1.093A3.811,3.811,0,0,0,8.109,9.8H7.38V18.14h2.891a12.535,12.535,0,0,0,2.308-.194,7.036,7.036,0,0,0,1.841-.6,6.708,6.708,0,0,0,1.534-1.06,7.471,7.471,0,0,0,1.911-2.761,21.725,21.725,0,0,0,.817-2.56h.465v7.668H.025L0,18.14H.478q3.194,0,3.193-3.415V3.881a3.622,3.622,0,0,0-.78-2.56A3.172,3.172,0,0,0,.478.493H0Z"/>
      </g>
      <g id="Group_6" data-name="Group 6" transform="translate(112.483 0.374)">
        <path id="Path_6" data-name="Path 6" d="M.005,0H10.491q.931,0,2.036.066t1.987.167a13.25,13.25,0,0,1,1.459.233,5.929,5.929,0,0,1,3.174,1.674,4.276,4.276,0,0,1,1.1,2.994,4.463,4.463,0,0,1-.528,2.187,4.5,4.5,0,0,1-1.552,1.621A7.929,7.929,0,0,1,15.658,9.95a14.765,14.765,0,0,1-3.344.347H7.5v4.428q0,3.414,3.193,3.415h.88v.493H-.02V18.14H.6q3.192,0,3.193-3.415V3.881Q3.79.492.6.493H.005ZM7.5.493V9.777h3.507a5.553,5.553,0,0,0,3.848-1.142A4.559,4.559,0,0,0,16.1,5.108q0-2.787-1.721-3.881A4.354,4.354,0,0,0,12.93.668,10.269,10.269,0,0,0,10.868.493Z" transform="translate(0.02)"/>
      </g>
      <g id="Group_7" data-name="Group 7" transform="translate(149.385 0.374)">
        <path id="Path_7" data-name="Path 7" d="M.005,0H10.491q.931,0,2.036.066t1.987.167a13.25,13.25,0,0,1,1.459.233,5.929,5.929,0,0,1,3.174,1.674,4.281,4.281,0,0,1,1.1,2.994,4.463,4.463,0,0,1-.528,2.187,4.5,4.5,0,0,1-1.553,1.621A7.909,7.909,0,0,1,15.658,9.95a14.765,14.765,0,0,1-3.344.347H7.5v4.428q0,3.414,3.193,3.415h.88v.493H-.02V18.14H.6q3.192,0,3.193-3.415V3.881Q3.79.492.6.493H.005ZM7.5.493V9.777h3.507a5.553,5.553,0,0,0,3.848-1.142A4.559,4.559,0,0,0,16.1,5.108q0-2.787-1.721-3.881A4.354,4.354,0,0,0,12.93.668,10.269,10.269,0,0,0,10.868.493Z" transform="translate(0.02)"/>
      </g>
      <g id="Group_8" data-name="Group 8" transform="translate(131.238 -0.001)">
        <path id="Path_8" data-name="Path 8" d="M4.382,1.357A10.05,10.05,0,0,0,2.421-1.679,10.047,10.047,0,0,0-1.131-4.112a11.827,11.827,0,0,0-4.507-.835,10.583,10.583,0,0,0-5.18,1.315,10.481,10.481,0,0,0-2.687,2.119c.289,2.119.21,5.433-2.475,7.332a8.862,8.862,0,0,0,.756,2.667,9.653,9.653,0,0,0,2.294,3.127,10.565,10.565,0,0,0,3.4,2.074,11.489,11.489,0,0,0,4.118.734A10.967,10.967,0,0,0-.137,13.127,10.045,10.045,0,0,0,3.672,9.62a8.88,8.88,0,0,0,1.4-4.842,8.9,8.9,0,0,0-.691-3.421m-2.569,1.1a9.877,9.877,0,0,1-.682,3A14.006,14.006,0,0,1-.526,8.506a13.844,13.844,0,0,1-3.407,3.507A6.391,6.391,0,0,1-7.446,13.24a4.954,4.954,0,0,1-3.225-1.165,5.416,5.416,0,0,1-1.627-2.1,6.231,6.231,0,0,1-.483-2.713,9.641,9.641,0,0,1,.663-3.11A14.677,14.677,0,0,1-10.34.892a15.1,15.1,0,0,1,1.95-2.273,9.911,9.911,0,0,1,2.1-1.546A7.2,7.2,0,0,1-4.128-3.7a4.394,4.394,0,0,1,2.037.133A5.723,5.723,0,0,1-.13-2.527,4.668,4.668,0,0,1,.807-1.5,5.046,5.046,0,0,1,1.441-.239a6.7,6.7,0,0,1,.372,2.692" transform="translate(15.98 4.947)"/>
      </g>
    </g>
  </g>
</svg>
