<svg width="20" height="19" viewBox="0 0 20 19" fill="none" xmlns="http://www.w3.org/2000/svg">
<path d="M9.66412 1.32293C9.88412 0.68793 10.2441 0.68793 10.4641 1.32293L12.1501 5.94097C12.2804 6.2682 12.5003 6.55206 12.7845 6.76006C13.0687 6.96806 13.4058 7.0918 13.7571 7.117H18.8921C19.5581 7.133 19.6681 7.46988 19.1351 7.87688L15.0421 11.3659C14.773 11.5951 14.5732 11.8948 14.4651 12.2314C14.3569 12.5679 14.3449 12.9279 14.4301 13.2709L15.9201 18.2178C16.1081 18.8528 15.8201 19.072 15.2691 18.688L11.0591 15.732C10.7612 15.5439 10.416 15.444 10.0636 15.444C9.71126 15.444 9.36612 15.5439 9.06815 15.732L4.85812 18.688C4.30912 19.072 4.01915 18.8528 4.21515 18.2178L5.69714 13.2709C5.78243 12.9279 5.77035 12.5679 5.66223 12.2314C5.55412 11.8948 5.35426 11.5951 5.08514 11.3659L0.992126 7.87688C0.459126 7.46888 0.569138 7.132 1.23514 7.117H6.37015C6.72176 7.09285 7.0593 6.96954 7.34372 6.76141C7.62813 6.55327 7.84777 6.2688 7.97714 5.94097L9.66412 1.32293Z" fill="#6d0202"/>
</svg>
