<svg width="32" height="32" viewBox="0 0 32 32" fill="none" xmlns="http://www.w3.org/2000/svg">
<mask id="mask0" mask-type="alpha" maskUnits="userSpaceOnUse" x="2" y="4" width="28" height="25">
<path fill-rule="evenodd" clip-rule="evenodd" d="M22.0003 4C19.6803 4 17.4537 5.08 16.0003 6.78667C14.547 5.08 12.3203 4 10.0003 4C5.89366 4 2.66699 7.22667 2.66699 11.3333C2.66699 16.3733 7.20033 20.48 14.067 26.72L16.0003 28.4667L17.9337 26.7067C24.8003 20.48 29.3337 16.3733 29.3337 11.3333C29.3337 7.22667 26.107 4 22.0003 4ZM16.1337 24.7333L16.0003 24.8667L15.867 24.7333C9.52033 18.9867 5.33366 15.1867 5.33366 11.3333C5.33366 8.66667 7.33366 6.66667 10.0003 6.66667C12.0537 6.66667 14.0537 7.98667 14.7603 9.81333H17.2537C17.947 7.98667 19.947 6.66667 22.0003 6.66667C24.667 6.66667 26.667 8.66667 26.667 11.3333C26.667 15.1867 22.4803 18.9867 16.1337 24.7333Z" fill="white"/>
</mask>
<g mask="url(#mask0)">
<rect x="-17.333" y="-17.3334" width="66.6667" height="66.6667" fill="#6d0202"/>
<mask id="mask1" mask-type="alpha" maskUnits="userSpaceOnUse" x="-18" y="-18" width="68" height="68">
<rect x="-17.333" y="-17.3334" width="66.6667" height="66.6667" fill="white"/>
</mask>
<g mask="url(#mask1)">
</g>
</g>
</svg>
